<mxfile host="app.diagrams.net" agent="Mozilla/5.0 (Windows NT 10.0; Win64; x64) AppleWebKit/537.36 (KHTML, like Gecko) Chrome/114.0.0.0 Safari/537.36" version="24.7.8">
  <diagram name="第 1 页" id="rSSmVDHVZMlHkxpgGuqY">
    <mxGraphModel dx="1434" dy="764" grid="1" gridSize="10" guides="1" tooltips="1" connect="1" arrows="1" fold="1" page="1" pageScale="1" pageWidth="827" pageHeight="1169" math="0" shadow="0">
      <root>
        <mxCell id="0" />
        <mxCell id="1" parent="0" />
        <mxCell id="hndbLVAVZ7vsD4T0p2dD-4" style="edgeStyle=orthogonalEdgeStyle;rounded=0;orthogonalLoop=1;jettySize=auto;html=1;entryX=0;entryY=0.5;entryDx=0;entryDy=0;" edge="1" parent="1" source="hndbLVAVZ7vsD4T0p2dD-1" target="hndbLVAVZ7vsD4T0p2dD-3">
          <mxGeometry relative="1" as="geometry" />
        </mxCell>
        <mxCell id="hndbLVAVZ7vsD4T0p2dD-7" value="发货公司原料&amp;amp;&amp;amp;非调拨" style="edgeLabel;html=1;align=center;verticalAlign=middle;resizable=0;points=[];" vertex="1" connectable="0" parent="hndbLVAVZ7vsD4T0p2dD-4">
          <mxGeometry x="0.1793" y="2" relative="1" as="geometry">
            <mxPoint as="offset" />
          </mxGeometry>
        </mxCell>
        <mxCell id="hndbLVAVZ7vsD4T0p2dD-5" style="edgeStyle=orthogonalEdgeStyle;rounded=0;orthogonalLoop=1;jettySize=auto;html=1;" edge="1" parent="1" source="hndbLVAVZ7vsD4T0p2dD-1" target="hndbLVAVZ7vsD4T0p2dD-2">
          <mxGeometry relative="1" as="geometry" />
        </mxCell>
        <mxCell id="hndbLVAVZ7vsD4T0p2dD-8" value="发货公司非原料 || 调拨" style="edgeLabel;html=1;align=center;verticalAlign=middle;resizable=0;points=[];" vertex="1" connectable="0" parent="hndbLVAVZ7vsD4T0p2dD-5">
          <mxGeometry x="0.1143" relative="1" as="geometry">
            <mxPoint x="-5" y="10" as="offset" />
          </mxGeometry>
        </mxCell>
        <mxCell id="hndbLVAVZ7vsD4T0p2dD-1" value="提交售后申请" style="rounded=0;whiteSpace=wrap;html=1;" vertex="1" parent="1">
          <mxGeometry x="90" y="330" width="120" height="60" as="geometry" />
        </mxCell>
        <mxCell id="hndbLVAVZ7vsD4T0p2dD-10" value="" style="edgeStyle=orthogonalEdgeStyle;rounded=0;orthogonalLoop=1;jettySize=auto;html=1;" edge="1" parent="1" source="hndbLVAVZ7vsD4T0p2dD-2" target="hndbLVAVZ7vsD4T0p2dD-9">
          <mxGeometry relative="1" as="geometry" />
        </mxCell>
        <mxCell id="hndbLVAVZ7vsD4T0p2dD-2" value="确定订单客服审核" style="rounded=1;whiteSpace=wrap;html=1;" vertex="1" parent="1">
          <mxGeometry x="560" y="330" width="120" height="60" as="geometry" />
        </mxCell>
        <mxCell id="hndbLVAVZ7vsD4T0p2dD-6" style="edgeStyle=orthogonalEdgeStyle;rounded=0;orthogonalLoop=1;jettySize=auto;html=1;entryX=0.5;entryY=0;entryDx=0;entryDy=0;" edge="1" parent="1" source="hndbLVAVZ7vsD4T0p2dD-3" target="hndbLVAVZ7vsD4T0p2dD-2">
          <mxGeometry relative="1" as="geometry" />
        </mxCell>
        <mxCell id="hndbLVAVZ7vsD4T0p2dD-3" value="集团档案管理员审核" style="rounded=1;whiteSpace=wrap;html=1;" vertex="1" parent="1">
          <mxGeometry x="340" y="170" width="120" height="60" as="geometry" />
        </mxCell>
        <mxCell id="hndbLVAVZ7vsD4T0p2dD-15" style="edgeStyle=orthogonalEdgeStyle;rounded=0;orthogonalLoop=1;jettySize=auto;html=1;exitX=0.5;exitY=0;exitDx=0;exitDy=0;entryX=0;entryY=0.5;entryDx=0;entryDy=0;" edge="1" parent="1" source="hndbLVAVZ7vsD4T0p2dD-9" target="hndbLVAVZ7vsD4T0p2dD-11">
          <mxGeometry relative="1" as="geometry" />
        </mxCell>
        <mxCell id="hndbLVAVZ7vsD4T0p2dD-16" value="改单价" style="edgeLabel;html=1;align=center;verticalAlign=middle;resizable=0;points=[];" vertex="1" connectable="0" parent="hndbLVAVZ7vsD4T0p2dD-15">
          <mxGeometry x="-0.2963" y="-1" relative="1" as="geometry">
            <mxPoint as="offset" />
          </mxGeometry>
        </mxCell>
        <mxCell id="hndbLVAVZ7vsD4T0p2dD-18" style="edgeStyle=orthogonalEdgeStyle;rounded=0;orthogonalLoop=1;jettySize=auto;html=1;" edge="1" parent="1" source="hndbLVAVZ7vsD4T0p2dD-9">
          <mxGeometry relative="1" as="geometry">
            <mxPoint x="1000" y="360" as="targetPoint" />
          </mxGeometry>
        </mxCell>
        <mxCell id="hndbLVAVZ7vsD4T0p2dD-9" value="财务审核" style="rounded=1;whiteSpace=wrap;html=1;" vertex="1" parent="1">
          <mxGeometry x="780" y="330" width="120" height="60" as="geometry" />
        </mxCell>
        <mxCell id="hndbLVAVZ7vsD4T0p2dD-19" value="" style="edgeStyle=orthogonalEdgeStyle;rounded=0;orthogonalLoop=1;jettySize=auto;html=1;" edge="1" parent="1" source="hndbLVAVZ7vsD4T0p2dD-11" target="hndbLVAVZ7vsD4T0p2dD-17">
          <mxGeometry relative="1" as="geometry" />
        </mxCell>
        <mxCell id="hndbLVAVZ7vsD4T0p2dD-11" value="产品经理审核" style="rounded=1;whiteSpace=wrap;html=1;" vertex="1" parent="1">
          <mxGeometry x="1010" y="170" width="120" height="60" as="geometry" />
        </mxCell>
        <mxCell id="hndbLVAVZ7vsD4T0p2dD-24" style="edgeStyle=orthogonalEdgeStyle;rounded=0;orthogonalLoop=1;jettySize=auto;html=1;entryX=0;entryY=0.5;entryDx=0;entryDy=0;" edge="1" parent="1" source="hndbLVAVZ7vsD4T0p2dD-17" target="hndbLVAVZ7vsD4T0p2dD-22">
          <mxGeometry relative="1" as="geometry" />
        </mxCell>
        <mxCell id="hndbLVAVZ7vsD4T0p2dD-26" value="是" style="edgeLabel;html=1;align=center;verticalAlign=middle;resizable=0;points=[];" vertex="1" connectable="0" parent="hndbLVAVZ7vsD4T0p2dD-24">
          <mxGeometry x="0.3333" relative="1" as="geometry">
            <mxPoint as="offset" />
          </mxGeometry>
        </mxCell>
        <mxCell id="hndbLVAVZ7vsD4T0p2dD-25" style="edgeStyle=orthogonalEdgeStyle;rounded=0;orthogonalLoop=1;jettySize=auto;html=1;entryX=0;entryY=0.5;entryDx=0;entryDy=0;" edge="1" parent="1" source="hndbLVAVZ7vsD4T0p2dD-17" target="hndbLVAVZ7vsD4T0p2dD-23">
          <mxGeometry relative="1" as="geometry" />
        </mxCell>
        <mxCell id="hndbLVAVZ7vsD4T0p2dD-27" value="否" style="edgeLabel;html=1;align=center;verticalAlign=middle;resizable=0;points=[];" vertex="1" connectable="0" parent="hndbLVAVZ7vsD4T0p2dD-25">
          <mxGeometry x="0.6308" relative="1" as="geometry">
            <mxPoint as="offset" />
          </mxGeometry>
        </mxCell>
        <mxCell id="hndbLVAVZ7vsD4T0p2dD-17" value="提交人是否是部门负责人" style="rhombus;whiteSpace=wrap;html=1;" vertex="1" parent="1">
          <mxGeometry x="1000" y="310" width="140" height="100" as="geometry" />
        </mxCell>
        <mxCell id="hndbLVAVZ7vsD4T0p2dD-32" style="edgeStyle=orthogonalEdgeStyle;rounded=0;orthogonalLoop=1;jettySize=auto;html=1;entryX=0.5;entryY=0;entryDx=0;entryDy=0;" edge="1" parent="1" source="hndbLVAVZ7vsD4T0p2dD-22" target="hndbLVAVZ7vsD4T0p2dD-29">
          <mxGeometry relative="1" as="geometry" />
        </mxCell>
        <mxCell id="hndbLVAVZ7vsD4T0p2dD-22" value="营销中心和部门负责人审批" style="rounded=1;whiteSpace=wrap;html=1;" vertex="1" parent="1">
          <mxGeometry x="1280" y="170" width="120" height="60" as="geometry" />
        </mxCell>
        <mxCell id="hndbLVAVZ7vsD4T0p2dD-31" style="edgeStyle=orthogonalEdgeStyle;rounded=0;orthogonalLoop=1;jettySize=auto;html=1;entryX=0.5;entryY=1;entryDx=0;entryDy=0;" edge="1" parent="1" source="hndbLVAVZ7vsD4T0p2dD-23" target="hndbLVAVZ7vsD4T0p2dD-29">
          <mxGeometry relative="1" as="geometry" />
        </mxCell>
        <mxCell id="hndbLVAVZ7vsD4T0p2dD-23" value="部门负责人审核" style="rounded=1;whiteSpace=wrap;html=1;" vertex="1" parent="1">
          <mxGeometry x="1280" y="330" width="120" height="60" as="geometry" />
        </mxCell>
        <mxCell id="hndbLVAVZ7vsD4T0p2dD-34" style="edgeStyle=orthogonalEdgeStyle;rounded=0;orthogonalLoop=1;jettySize=auto;html=1;entryX=0;entryY=0.5;entryDx=0;entryDy=0;" edge="1" parent="1" source="hndbLVAVZ7vsD4T0p2dD-29" target="hndbLVAVZ7vsD4T0p2dD-33">
          <mxGeometry relative="1" as="geometry" />
        </mxCell>
        <mxCell id="hndbLVAVZ7vsD4T0p2dD-35" value="是" style="edgeLabel;html=1;align=center;verticalAlign=middle;resizable=0;points=[];" vertex="1" connectable="0" parent="hndbLVAVZ7vsD4T0p2dD-34">
          <mxGeometry x="0.2182" y="-3" relative="1" as="geometry">
            <mxPoint as="offset" />
          </mxGeometry>
        </mxCell>
        <mxCell id="hndbLVAVZ7vsD4T0p2dD-37" style="edgeStyle=orthogonalEdgeStyle;rounded=0;orthogonalLoop=1;jettySize=auto;html=1;" edge="1" parent="1" source="hndbLVAVZ7vsD4T0p2dD-29" target="hndbLVAVZ7vsD4T0p2dD-36">
          <mxGeometry relative="1" as="geometry" />
        </mxCell>
        <mxCell id="hndbLVAVZ7vsD4T0p2dD-38" value="否" style="edgeLabel;html=1;align=center;verticalAlign=middle;resizable=0;points=[];" vertex="1" connectable="0" parent="hndbLVAVZ7vsD4T0p2dD-37">
          <mxGeometry x="0.64" y="-1" relative="1" as="geometry">
            <mxPoint as="offset" />
          </mxGeometry>
        </mxCell>
        <mxCell id="hndbLVAVZ7vsD4T0p2dD-29" value="是否调拨" style="rhombus;whiteSpace=wrap;html=1;" vertex="1" parent="1">
          <mxGeometry x="1530" y="250" width="80" height="80" as="geometry" />
        </mxCell>
        <mxCell id="hndbLVAVZ7vsD4T0p2dD-39" style="edgeStyle=orthogonalEdgeStyle;rounded=0;orthogonalLoop=1;jettySize=auto;html=1;" edge="1" parent="1" source="hndbLVAVZ7vsD4T0p2dD-33" target="hndbLVAVZ7vsD4T0p2dD-36">
          <mxGeometry relative="1" as="geometry" />
        </mxCell>
        <mxCell id="hndbLVAVZ7vsD4T0p2dD-33" value="确认合同客服审核" style="rounded=1;whiteSpace=wrap;html=1;" vertex="1" parent="1">
          <mxGeometry x="1740" y="170" width="120" height="60" as="geometry" />
        </mxCell>
        <mxCell id="hndbLVAVZ7vsD4T0p2dD-41" value="" style="edgeStyle=orthogonalEdgeStyle;rounded=0;orthogonalLoop=1;jettySize=auto;html=1;" edge="1" parent="1" source="hndbLVAVZ7vsD4T0p2dD-36" target="hndbLVAVZ7vsD4T0p2dD-40">
          <mxGeometry relative="1" as="geometry" />
        </mxCell>
        <mxCell id="hndbLVAVZ7vsD4T0p2dD-36" value="仓储审核" style="rounded=1;whiteSpace=wrap;html=1;" vertex="1" parent="1">
          <mxGeometry x="1740" y="330" width="120" height="60" as="geometry" />
        </mxCell>
        <mxCell id="hndbLVAVZ7vsD4T0p2dD-43" value="" style="edgeStyle=orthogonalEdgeStyle;rounded=0;orthogonalLoop=1;jettySize=auto;html=1;" edge="1" parent="1" source="hndbLVAVZ7vsD4T0p2dD-40" target="hndbLVAVZ7vsD4T0p2dD-42">
          <mxGeometry relative="1" as="geometry" />
        </mxCell>
        <mxCell id="hndbLVAVZ7vsD4T0p2dD-40" value="订单跟进人审核" style="rounded=1;whiteSpace=wrap;html=1;" vertex="1" parent="1">
          <mxGeometry x="1920" y="330" width="120" height="60" as="geometry" />
        </mxCell>
        <mxCell id="hndbLVAVZ7vsD4T0p2dD-42" value="结束" style="ellipse;whiteSpace=wrap;html=1;aspect=fixed;" vertex="1" parent="1">
          <mxGeometry x="2100" y="335" width="50" height="50" as="geometry" />
        </mxCell>
      </root>
    </mxGraphModel>
  </diagram>
</mxfile>
